<?xml version="1.0" standalone="no"?>
<!DOCTYPE svg PUBLIC "-//W3C//DTD SVG 20010904//EN"
 "http://www.w3.org/TR/2001/REC-SVG-20010904/DTD/svg10.dtd">
<svg version="1.0" xmlns="http://www.w3.org/2000/svg"
 width="1026.000000pt" height="1026.000000pt" viewBox="0 0 1026.000000 1026.000000"
 preserveAspectRatio="xMidYMid meet">
<metadata>
Created by potrace 1.11, written by Peter Selinger 2001-2013
</metadata>
<g transform="translate(0.000000,1026.000000) scale(0.100000,-0.100000)"
fill="#000000" stroke="none">
<path d="M50 5190 l0 -5020 1100 0 1100 0 0 190 0 190 -910 0 -910 0 0 4640 0
4640 910 0 910 0 0 190 0 190 -1100 0 -1100 0 0 -5020z"/>
<path d="M7990 9920 l0 -190 910 0 910 0 0 -4640 0 -4640 -910 0 -910 0 0
-190 0 -190 1100 0 1100 0 0 5020 0 5020 -1100 0 -1100 0 0 -190z"/>
<path d="M2480 6933 c0 -5 256 -831 568 -1838 l567 -1830 437 -3 437 -2 23 77
c13 43 154 511 313 1040 160 530 292 963 295 963 4 0 364 -1186 611 -2012 l20
-68 437 0 437 0 565 1825 c311 1004 566 1832 568 1840 3 13 -56 15 -472 15
l-475 0 -14 -47 c-8 -27 -148 -544 -312 -1150 -165 -606 -301 -1101 -302
-1099 -2 2 -149 518 -326 1147 l-323 1144 -414 0 -415 0 -322 -1143 c-177
-629 -323 -1145 -325 -1147 -2 -2 -143 512 -315 1143 l-311 1147 -476 3 c-262
1 -476 -1 -476 -5z"/>
</g>
</svg>
